HIERARCHY
ROOT Hips
{
	OFFSET 0.000000 0.000000 0.000000
	CHANNELS 6 Xposition Yposition Zposition Xrotation Yrotation Zrotation
	JOINT Spine
	{
		OFFSET 0.000000 0.046887 0.070330
		CHANNELS 3 Xrotation Yrotation Zrotation
		JOINT Spine1
		{
			OFFSET 0.000000 0.016283 0.092349
			CHANNELS 3 Xrotation Yrotation Zrotation
			JOINT Spine2
			{
				OFFSET 0.000000 0.008173 0.093416
				CHANNELS 3 Xrotation Yrotation Zrotation
				JOINT Spine3
				{
					OFFSET 0.000000 0.000000 0.093773
					CHANNELS 3 Xrotation Yrotation Zrotation
					JOINT Neck
					{
						OFFSET 0.000000 -0.035165 0.246155
						CHANNELS 3 Xrotation Yrotation Zrotation
						JOINT Head
						{
							OFFSET 0.000000 -0.022390 0.126979
							CHANNELS 3 Xrotation Yrotation Zrotation
							End Site
							{
								OFFSET 0.000000 0.000000 0.000000
							}
						}
					}
					JOINT RightShoulder
					{
						OFFSET -0.030509 -0.050849 0.164750
						CHANNELS 3 Xrotation Yrotation Zrotation
						JOINT RightArm
						{
							OFFSET -0.151529 0.000000 0.000000
							CHANNELS 3 Xrotation Yrotation Zrotation
							JOINT RightForeArm
							{
								OFFSET -0.293509 0.000000 0.000000
								CHANNELS 3 Xrotation Yrotation Zrotation
								JOINT RightHand
								{
									OFFSET -0.257951 0.000000 0.000000
									CHANNELS 3 Xrotation Yrotation Zrotation
									JOINT RightHandEnd
									{
										OFFSET -0.071589 0.000000 0.000000
										CHANNELS 3 Xrotation Yrotation Zrotation
										End Site
										{
											OFFSET 0.000000 0.000000 0.000000
										}
									}
									JOINT RightHandThumb1
									{
										OFFSET -0.028635 -0.047726 -0.019090
										CHANNELS 3 Xrotation Yrotation Zrotation
										End Site
										{
											OFFSET 0.000000 0.000000 0.000000
										}
									}
								}
							}
						}
					}
					JOINT LeftShoulder
					{
						OFFSET 0.030509 -0.050849 0.164750
						CHANNELS 3 Xrotation Yrotation Zrotation
						JOINT LeftArm
						{
							OFFSET 0.151529 0.000000 0.000000
							CHANNELS 3 Xrotation Yrotation Zrotation
							JOINT LeftForeArm
							{
								OFFSET 0.293509 0.000000 0.000000
								CHANNELS 3 Xrotation Yrotation Zrotation
								JOINT LeftHand
								{
									OFFSET 0.257951 0.000000 0.000000
									CHANNELS 3 Xrotation Yrotation Zrotation
									JOINT LeftHandEnd
									{
										OFFSET 0.071589 0.000000 0.000000
										CHANNELS 3 Xrotation Yrotation Zrotation
										End Site
										{
											OFFSET 0.000000 0.000000 0.000000
										}
									}
									JOINT LeftHandThumb1
									{
										OFFSET 0.028635 -0.047726 -0.019090
										CHANNELS 3 Xrotation Yrotation Zrotation
										End Site
										{
											OFFSET 0.000000 0.000000 0.000000
										}
									}
								}
							}
						}
					}
				}
			}
		}
	}
	JOINT RightUpLeg
	{
		OFFSET -0.090511 0.000000 -0.026441
		CHANNELS 3 Xrotation Yrotation Zrotation
		JOINT RightLeg
		{
			OFFSET 0.000000 0.000000 -0.424335
			CHANNELS 3 Xrotation Yrotation Zrotation
			JOINT RightFoot
			{
				OFFSET 0.000000 0.000000 -0.414558
				CHANNELS 3 Xrotation Yrotation Zrotation
				JOINT RightToeBase
				{
					OFFSET 0.000000 -0.148042 -0.053883
					CHANNELS 3 Xrotation Yrotation Zrotation
					End Site
					{
						OFFSET 0.000000 0.000000 0.000000
					}
				}
			}
		}
	}
	JOINT LeftUpLeg
	{
		OFFSET 0.090511 0.000000 -0.026441
		CHANNELS 3 Xrotation Yrotation Zrotation
		JOINT LeftLeg
		{
			OFFSET 0.000000 0.000000 -0.424335
			CHANNELS 3 Xrotation Yrotation Zrotation
			JOINT LeftFoot
			{
				OFFSET 0.000000 0.000000 -0.414558
				CHANNELS 3 Xrotation Yrotation Zrotation
				JOINT LeftToeBase
				{
					OFFSET 0.000000 -0.148042 -0.053883
					CHANNELS 3 Xrotation Yrotation Zrotation
					End Site
					{
						OFFSET 0.000000 0.000000 0.000000
					}
				}
			}
		}
	}
}
MOTION
Frames: 15
Frame Time: 0.033333
-0.193472 -1.126520 0.923922 -1.180000 0.452300 93.060300 -1.252100 -1.106400 0.050800 -0.951700 -0.320400 -0.047800 2.466900 0.713700 -0.172600 0.667300 0.375300 -0.641300 0.610100 4.349800 0.562800 -0.201600 1.418700 -2.607300 -2.740700 9.117700 3.337700 8.540300 -15.602400 4.711600 0.000000 0.000000 9.731200 -15.339400 14.385500 -2.651800 0.000000 0.000000 0.000000 0.000000 0.000000 0.000000 -2.730400 -12.311600 -2.097700 20.610700 7.874900 -6.574800 0.000000 0.000000 -2.659600 -21.165900 -7.153200 -4.639000 0.000000 0.000000 0.000000 0.000000 0.000000 0.000000 -0.100300 -1.437500 -20.721800 7.290100 0.000000 0.000000 -8.133800 6.125600 0.487800 2.699100 0.000000 0.000000 1.271300 0.828300 15.336900 3.324600 0.000000 0.000000 -7.761500 -3.256300 4.823400 0.282200 0.000000 0.000000 
-0.193502 -1.126368 0.923877 -1.207200 0.438400 93.027600 -1.254000 -1.127200 0.056600 -0.959200 -0.343200 -0.049200 2.525200 0.734700 -0.149900 0.669800 0.361400 -0.636700 0.665800 4.371700 0.571200 -0.245400 1.447100 -2.630100 -2.698500 9.182200 3.335400 8.533300 -15.732900 4.749900 0.000000 0.000000 9.688400 -15.307600 14.336600 -2.673600 0.000000 0.000000 0.000000 0.000000 0.000000 0.000000 -2.922100 -12.388000 -2.212900 20.606300 8.035200 -6.574300 0.000000 0.000000 -2.600100 -20.968900 -7.105700 -4.697900 0.000000 0.000000 0.000000 0.000000 0.000000 0.000000 -0.090800 -1.458700 -20.693400 7.290800 0.000000 0.000000 -8.131900 6.160300 0.483900 2.679800 0.000000 0.000000 1.233800 0.788900 15.530900 3.436500 0.000000 0.000000 -7.835000 -3.257900 4.660700 0.288800 0.000000 0.000000 
-0.193573 -1.126076 0.923813 -1.241900 0.426500 92.987100 -1.256600 -1.155300 0.063800 -0.967400 -0.370800 -0.050400 2.603700 0.759800 -0.125300 0.674800 0.345300 -0.633200 0.744900 4.405100 0.581300 -0.284600 1.486400 -2.663400 -2.650000 9.253500 3.331700 8.535300 -15.887000 4.810600 0.000000 0.000000 9.639500 -15.273600 14.258500 -2.707700 0.000000 0.000000 0.000000 0.000000 0.000000 0.000000 -3.183200 -12.500700 -2.364700 20.605100 8.258500 -6.574800 0.000000 0.000000 -2.533000 -20.734900 -7.074500 -4.779900 0.000000 0.000000 0.000000 0.000000 0.000000 0.000000 -0.087600 -1.479600 -20.626700 7.290900 0.000000 0.000000 -8.119100 6.200300 0.454000 2.652700 0.000000 0.000000 1.161600 0.738500 15.838400 3.615000 0.000000 0.000000 -7.950600 -3.265400 4.388000 0.290300 0.000000 0.000000 
-0.193655 -1.125692 0.923803 -1.263800 0.432000 92.956400 -1.263200 -1.172400 0.066100 -0.973300 -0.383100 -0.051400 2.664100 0.764000 -0.127400 0.682300 0.335400 -0.633900 0.815600 4.453300 0.598400 -0.292500 1.506000 -2.676000 -2.617700 9.280500 3.343000 8.571100 -15.945400 4.871000 0.000000 0.000000 9.631800 -15.264900 14.173900 -2.745900 0.000000 0.000000 0.000000 0.000000 0.000000 0.000000 -3.317400 -12.575100 -2.431400 20.620800 8.402700 -6.586000 0.000000 0.000000 -2.504400 -20.630100 -7.091000 -4.834100 0.000000 0.000000 0.000000 0.000000 0.000000 0.000000 -0.098100 -1.482400 -20.518000 7.277900 0.000000 0.000000 -8.085700 6.196800 0.375600 2.638400 0.000000 0.000000 1.075100 0.710100 16.162900 3.786600 0.000000 0.000000 -8.061200 -3.265100 4.085000 0.277600 0.000000 0.000000 
-0.193726 -1.125250 0.923823 -1.275200 0.451600 92.943700 -1.270700 -1.177800 0.064200 -0.980300 -0.382400 -0.052400 2.698300 0.739600 -0.156400 0.690700 0.330400 -0.635300 0.876900 4.512900 0.623200 -0.285700 1.518500 -2.665900 -2.596800 9.286400 3.360400 8.623600 -15.902600 4.920900 0.000000 0.000000 9.657900 -15.281400 14.113200 -2.781700 0.000000 0.000000 0.000000 0.000000 0.000000 0.000000 -3.281500 -12.589800 -2.408400 20.644900 8.442000 -6.613100 0.000000 0.000000 -2.504800 -20.648800 -7.118500 -4.839600 0.000000 0.000000 0.000000 0.000000 0.000000 0.000000 -0.116400 -1.471300 -20.421000 7.255200 0.000000 0.000000 -8.042300 6.177300 0.290900 2.590500 0.000000 0.000000 0.991700 0.703100 16.463000 3.921500 0.000000 0.000000 -8.148800 -3.251900 3.792500 0.262400 0.000000 0.000000 
-0.193825 -1.124748 0.923808 -1.300500 0.482000 92.953600 -1.286900 -1.194300 0.063400 -0.986100 -0.388400 -0.054600 2.726400 0.707600 -0.183500 0.698100 0.327900 -0.636900 0.943100 4.555700 0.641300 -0.297000 1.561600 -2.661100 -2.572000 9.325800 3.351900 8.624400 -15.850100 4.963000 0.000000 0.000000 9.667200 -15.282700 14.109100 -2.808400 0.000000 0.000000 0.000000 0.000000 0.000000 0.000000 -3.190700 -12.581000 -2.390700 20.643100 8.450700 -6.641400 0.000000 0.000000 -2.512400 -20.675100 -7.142300 -4.811600 0.000000 0.000000 0.000000 0.000000 0.000000 0.000000 -0.151000 -1.467200 -20.399800 7.246900 0.000000 0.000000 -8.012300 6.188300 0.261200 2.525100 0.000000 0.000000 0.894100 0.683400 16.753300 4.053500 0.000000 0.000000 -8.234900 -3.236300 3.497200 0.262100 0.000000 0.000000 
-0.193949 -1.124174 0.923760 -1.339800 0.505300 92.985300 -1.292500 -1.230800 0.066200 -0.990600 -0.410400 -0.058000 2.758700 0.698300 -0.195100 0.703500 0.332300 -0.647200 1.003500 4.556100 0.637900 -0.323900 1.616600 -2.671900 -2.541900 9.394100 3.306900 8.554000 -15.827400 5.002400 0.000000 0.000000 9.650700 -15.241700 14.161800 -2.828200 0.000000 0.000000 0.000000 0.000000 0.000000 0.000000 -3.126500 -12.589100 -2.395000 20.591600 8.468800 -6.685900 0.000000 0.000000 -2.520900 -20.666400 -7.203400 -4.777300 0.000000 0.000000 0.000000 0.000000 0.000000 0.000000 -0.187800 -1.467500 -20.451200 7.262300 0.000000 0.000000 -8.006100 6.199100 0.283400 2.546400 0.000000 0.000000 0.796700 0.648700 17.031400 4.191500 0.000000 0.000000 -8.324200 -3.221500 3.197100 0.272100 0.000000 0.000000 
-0.194069 -1.123549 0.923745 -1.370900 0.520800 93.025800 -1.281200 -1.274700 0.070300 -0.986100 -0.436600 -0.062000 2.779900 0.723900 -0.208800 0.703500 0.346900 -0.674600 1.037400 4.523100 0.615600 -0.339400 1.611700 -2.674400 -2.531800 9.431400 3.280400 8.495100 -15.789400 5.016300 0.000000 0.000000 9.658700 -15.194700 14.220500 -2.852500 0.000000 0.000000 0.000000 0.000000 0.000000 0.000000 -3.120100 -12.624200 -2.378400 20.538400 8.491000 -6.749300 0.000000 0.000000 -2.531500 -20.658700 -7.314500 -4.766000 0.000000 0.000000 0.000000 0.000000 0.000000 0.000000 -0.215800 -1.455600 -20.488700 7.276800 0.000000 0.000000 -7.999100 6.166300 0.277900 2.634400 0.000000 0.000000 0.713700 0.627500 17.295400 4.316400 0.000000 0.000000 -8.405100 -3.204200 2.897600 0.273000 0.000000 0.000000 
-0.194183 -1.122904 0.923765 -1.383600 0.542300 93.059800 -1.260900 -1.308400 0.072300 -0.975000 -0.455100 -0.064200 2.775800 0.767100 -0.238800 0.698100 0.365600 -0.711600 1.051600 4.480000 0.586200 -0.338600 1.536900 -2.656700 -2.547900 9.421000 3.312200 8.501500 -15.718000 4.997600 0.000000 0.000000 9.699400 -15.193300 14.233800 -2.885400 0.000000 0.000000 0.000000 0.000000 0.000000 0.000000 -3.168500 -12.677100 -2.342500 20.530300 8.525500 -6.812100 0.000000 0.000000 -2.534200 -20.678500 -7.419500 -4.793700 0.000000 0.000000 0.000000 0.000000 0.000000 0.000000 -0.240000 -1.429000 -20.460100 7.267600 0.000000 0.000000 -7.966700 6.123900 0.207200 2.619500 0.000000 0.000000 0.632600 0.631000 17.562200 4.431300 0.000000 0.000000 -8.479800 -3.188600 2.596700 0.265300 0.000000 0.000000 
-0.194295 -1.122276 0.923762 -1.401300 0.571400 93.084500 -1.245400 -1.335200 0.073400 -0.963500 -0.467900 -0.065800 2.762000 0.796500 -0.267200 0.692100 0.379300 -0.738800 1.067800 4.428400 0.549300 -0.344200 1.479800 -2.648100 -2.565500 9.413900 3.364800 8.499300 -15.671500 4.968700 0.000000 0.000000 9.715600 -15.221600 14.217400 -2.917300 0.000000 0.000000 0.000000 0.000000 0.000000 0.000000 -3.200900 -12.722300 -2.339600 20.530700 8.571300 -6.839800 0.000000 0.000000 -2.542500 -20.730100 -7.479800 -4.828100 0.000000 0.000000 0.000000 0.000000 0.000000 0.000000 -0.266600 -1.413000 -20.400700 7.243300 0.000000 0.000000 -7.917500 6.115700 0.118200 2.493600 0.000000 0.000000 0.537500 0.626000 17.847000 4.561200 0.000000 0.000000 -8.566600 -3.181900 2.288200 0.267100 0.000000 0.000000 
-0.194391 -1.121687 0.923734 -1.444900 0.597600 93.102300 -1.239300 -1.364400 0.075600 -0.958300 -0.481300 -0.066700 2.767000 0.799300 -0.273200 0.693100 0.386200 -0.747300 1.074500 4.364000 0.502900 -0.361400 1.495000 -2.675800 -2.559100 9.443800 3.371400 8.411300 -15.687500 4.969400 0.000000 0.000000 9.675000 -15.224300 14.219500 -2.940600 0.000000 0.000000 0.000000 0.000000 0.000000 0.000000 -3.128500 -12.740100 -2.362100 20.474800 8.594600 -6.846600 0.000000 0.000000 -2.570600 -20.788700 -7.521300 -4.808300 0.000000 0.000000 0.000000 0.000000 0.000000 0.000000 -0.294400 -1.423700 -20.360200 7.228400 0.000000 0.000000 -7.878800 6.112100 0.059900 2.472500 0.000000 0.000000 0.439800 0.586500 18.136700 4.702900 0.000000 0.000000 -8.664700 -3.176500 1.984800 0.276700 0.000000 0.000000 
-0.194424 -1.121131 0.923722 -1.498500 0.610900 93.104400 -1.234800 -1.388600 0.078000 -0.959300 -0.491600 -0.067700 2.797600 0.785700 -0.265600 0.699000 0.388900 -0.743900 1.047100 4.312300 0.457200 -0.375000 1.518700 -2.717800 -2.536200 9.480300 3.337100 8.299900 -15.721700 5.008500 0.000000 0.000000 9.625800 -15.197900 14.240100 -2.957400 0.000000 0.000000 0.000000 0.000000 0.000000 0.000000 -2.996300 -12.736800 -2.363700 20.391700 8.584600 -6.859300 0.000000 0.000000 -2.600800 -20.811500 -7.559300 -4.729900 0.000000 0.000000 0.000000 0.000000 0.000000 0.000000 -0.309600 -1.442900 -20.346900 7.223000 0.000000 0.000000 -7.855300 6.075200 0.038900 2.606400 0.000000 0.000000 0.369100 0.534700 18.440200 4.825900 0.000000 0.000000 -8.755800 -3.159600 1.682400 0.277900 0.000000 0.000000 
-0.194381 -1.120579 0.923722 -1.533100 0.621000 93.079300 -1.229300 -1.392800 0.079100 -0.957000 -0.492800 -0.067400 2.825600 0.775900 -0.272400 0.702600 0.387900 -0.740700 0.997000 4.297100 0.427200 -0.382000 1.469200 -2.731800 -2.524100 9.476300 3.333300 8.259700 -15.721300 5.042700 0.000000 0.000000 9.631500 -15.194100 14.243100 -2.968100 0.000000 0.000000 0.000000 0.000000 0.000000 0.000000 -2.948000 -12.740500 -2.341200 20.363300 8.589700 -6.864500 0.000000 0.000000 -2.606200 -20.784000 -7.579500 -4.668900 0.000000 0.000000 0.000000 0.000000 0.000000 0.000000 -0.311400 -1.444100 -20.336100 7.204000 0.000000 0.000000 -7.824300 6.036800 0.038500 2.654800 0.000000 0.000000 0.324100 0.507000 18.794700 4.922500 0.000000 0.000000 -8.836600 -3.135700 1.353600 0.274000 0.000000 0.000000 
-0.194290 -1.120018 0.923719 -1.551800 0.632200 93.033100 -1.219700 -1.381900 0.079600 -0.950500 -0.488000 -0.066100 2.832000 0.776300 -0.289600 0.700800 0.381900 -0.738700 0.965100 4.296100 0.405200 -0.396500 1.372100 -2.722100 -2.521000 9.438900 3.377200 8.270000 -15.709300 5.040700 0.000000 0.000000 9.676300 -15.223500 14.225700 -2.967100 0.000000 0.000000 0.000000 0.000000 0.000000 0.000000 -3.014900 -12.770000 -2.334700 20.387900 8.650800 -6.846800 0.000000 0.000000 -2.590800 -20.746900 -7.579800 -4.678300 0.000000 0.000000 0.000000 0.000000 0.000000 0.000000 -0.302800 -1.434300 -20.309000 7.162100 0.000000 0.000000 -7.774900 6.032900 0.046100 2.512700 0.000000 0.000000 0.290100 0.498900 19.191300 5.010400 0.000000 0.000000 -8.920600 -3.118800 1.001900 0.281200 0.000000 0.000000 
-0.194188 -1.119492 0.923709 -1.586700 0.645700 92.980700 -1.215400 -1.378400 0.082300 -0.945500 -0.487500 -0.064500 2.827500 0.781300 -0.279400 0.699000 0.371300 -0.727900 0.963600 4.267500 0.368200 -0.407700 1.305100 -2.738700 -2.496300 9.411700 3.404700 8.282500 -15.742400 5.035000 0.000000 0.000000 9.685100 -15.235300 14.196100 -2.965500 0.000000 0.000000 0.000000 0.000000 0.000000 0.000000 -3.086700 -12.816900 -2.356300 20.388000 8.738700 -6.853100 0.000000 0.000000 -2.569100 -20.712800 -7.554300 -4.703400 0.000000 0.000000 0.000000 0.000000 0.000000 0.000000 -0.300000 -1.444800 -20.258100 7.123100 0.000000 0.000000 -7.726200 6.040800 0.041000 2.420100 0.000000 0.000000 0.247700 0.470100 19.566200 5.111700 0.000000 0.000000 -9.017200 -3.110800 0.675700 0.290600 0.000000 0.000000 
